<svg width="16" height="16" viewBox="0 0 16 16" fill="none" xmlns="http://www.w3.org/2000/svg">
<path d="M10.9995 10.75L10.9995 6H9.2505C9.02777 6 8.91623 5.73071 9.07372 5.57322L11.3227 3.08303C11.3715 3.03421 11.4355 3 11.4995 3C11.5635 3 11.6275 3.03421 11.6763 3.08303L13.9258 5.57322C14.0833 5.73071 13.9717 6 13.749 6L11.9995 6L11.9995 10.75C11.9995 10.8881 11.8876 11 11.7495 11H11.2495C11.1114 11 10.9995 10.8881 10.9995 10.75Z" fill="white"/>
<path d="M5.99951 3.25001L5.99951 8.00001H4.2505C4.02777 8.00001 3.91623 8.2693 4.07372 8.42679L6.32273 10.917C6.37155 10.9658 6.43553 11 6.49951 11C6.56349 11 6.62747 10.9658 6.67629 10.917L8.92578 8.42679C9.08327 8.2693 8.97173 8.00001 8.74901 8.00001L6.99951 8.00001L6.99951 3.25001C6.99951 3.11194 6.88758 3.00001 6.74951 3.00001H6.24951C6.11144 3.00001 5.99951 3.11194 5.99951 3.25001Z" fill="white"/>
</svg>
